<svg xmlns="http://www.w3.org/2000/svg" viewBox="0 0 1440 420" role="img" aria-labelledby="title desc">
  <title id="title">AI 投資規模與生產力提升預估主視覺</title>
  <desc id="desc">以泡泡散點圖表現 AI 投資強度、生產力提升潛力與市場規模的關係。</desc>
  <defs>
    <linearGradient id="bg" x1="0" y1="0" x2="1" y2="1">
      <stop offset="0" stop-color="#fbfbf7"/>
      <stop offset="0.55" stop-color="#f0f5f6"/>
      <stop offset="1" stop-color="#edf3fb"/>
    </linearGradient>
    <linearGradient id="panel" x1="0" y1="0" x2="1" y2="1">
      <stop offset="0" stop-color="#ffffff"/>
      <stop offset="1" stop-color="#f5f6f1"/>
    </linearGradient>
    <filter id="shadow" x="-20%" y="-30%" width="140%" height="160%">
      <feDropShadow dx="0" dy="18" stdDeviation="22" flood-color="#24312c" flood-opacity="0.13"/>
    </filter>
  </defs>
  <rect width="1440" height="420" rx="34" fill="url(#bg)"/>
  <g opacity="0.38" stroke="#d9ded8" stroke-width="1">
    <path d="M80 0v420M160 0v420M240 0v420M320 0v420M400 0v420M480 0v420M560 0v420M640 0v420M720 0v420M800 0v420M880 0v420M960 0v420M1040 0v420M1120 0v420M1200 0v420M1280 0v420M1360 0v420"/>
    <path d="M0 70h1440M0 140h1440M0 210h1440M0 280h1440M0 350h1440"/>
  </g>
  <circle cx="1175" cy="98" r="118" fill="#b7d8f0" opacity="0.34"/>
  <circle cx="170" cy="314" r="132" fill="#bde7d3" opacity="0.36"/>
  <circle cx="760" cy="76" r="82" fill="#f4c7b0" opacity="0.34"/>
  <g filter="url(#shadow)">
    <rect x="122" y="76" width="828" height="278" rx="28" fill="url(#panel)" stroke="#e3e1d8"/>
    <g transform="translate(184 116)">
      <path d="M0 190H680" stroke="#d3d6d0" stroke-width="2"/>
      <path d="M0 190V0" stroke="#d3d6d0" stroke-width="2"/>
      <g stroke="#dfe2dc" stroke-width="1">
        <path d="M136 0v190M272 0v190M408 0v190M544 0v190M680 0v190"/>
        <path d="M0 38h680M0 76h680M0 114h680M0 152h680"/>
      </g>
      <text x="0" y="226" font-family="Anta, Arial, sans-serif" font-size="18" fill="#68665e">AI investment intensity</text>
      <text x="-44" y="-16" font-family="Anta, Arial, sans-serif" font-size="18" fill="#68665e">Productivity upside</text>
      <circle cx="542" cy="48" r="48" fill="#378add" opacity="0.86"/>
      <circle cx="450" cy="74" r="66" fill="#1d9e75" opacity="0.72"/>
      <circle cx="306" cy="104" r="44" fill="#d85a30" opacity="0.78"/>
      <circle cx="596" cy="118" r="78" fill="#7aa7cb" opacity="0.38"/>
      <circle cx="194" cy="135" r="36" fill="#d4537e" opacity="0.68"/>
      <circle cx="392" cy="38" r="23" fill="#e58f48" opacity="0.86"/>
      <path d="M118 166C210 112 272 146 338 104S438 74 516 52S604 61 654 30" fill="none" stroke="#378add" stroke-width="7" stroke-linecap="round" opacity="0.88"/>
      <path d="M118 166L516 52" stroke="#2d6fae" stroke-width="2" opacity="0.26"/>
      <circle cx="118" cy="166" r="7" fill="#378add"/>
      <circle cx="338" cy="104" r="7" fill="#378add"/>
      <circle cx="516" cy="52" r="7" fill="#378add"/>
    </g>
  </g>
  <g filter="url(#shadow)">
    <rect x="1005" y="102" width="312" height="222" rx="24" fill="#ffffff" opacity="0.92" stroke="#e3e1d8"/>
    <text x="1040" y="148" font-family="Anta, Arial, sans-serif" font-size="18" fill="#68665e">Reading key</text>
    <g transform="translate(1040 178)">
      <circle cx="20" cy="18" r="18" fill="#378add" opacity="0.9"/>
      <text x="54" y="24" font-family="Anta, Arial, sans-serif" font-size="18" fill="#24231f">High investment</text>
    </g>
    <g transform="translate(1040 226)">
      <circle cx="20" cy="18" r="26" fill="#1d9e75" opacity="0.75"/>
      <text x="64" y="24" font-family="Anta, Arial, sans-serif" font-size="18" fill="#24231f">Large market base</text>
    </g>
    <g transform="translate(1040 276)">
      <path d="M0 24C42 6 74 37 116 12" fill="none" stroke="#d85a30" stroke-width="7" stroke-linecap="round"/>
      <text x="138" y="23" font-family="Anta, Arial, sans-serif" font-size="18" fill="#24231f">Workflow lift</text>
    </g>
  </g>
</svg>
